<svg width="512" height="512" viewBox="0 0 64 64" xmlns="http://www.w3.org/2000/svg">
  <defs>
    <linearGradient id="logoGrad" x1="0%" y1="0%" x2="100%" y2="100%">
      <stop offset="0%" stop-color="#38bdf8"/>
      <stop offset="100%" stop-color="#818cf8"/>
    </linearGradient>
    
    <filter id="dropShadow" x="-20%" y="-20%" width="140%" height="140%">
      <feDropShadow dx="0" dy="2" stdDeviation="1.5" flood-color="#000000" flood-opacity="0.4"/>
    </filter>
  </defs>

  <circle cx="32" cy="32" r="30" fill="#0f172a" stroke="#1e293b" stroke-width="1.5"/>

  <g opacity="0.06" fill="#38bdf8">
    <rect x="18" y="18" width="4" height="4" rx="1"/>
    <rect x="30" y="18" width="4" height="4" rx="1"/>
    <rect x="42" y="18" width="4" height="4" rx="1"/>
    
    <rect x="18" y="30" width="4" height="4" rx="1"/>
    <rect x="30" y="30" width="4" height="4" rx="1"/>
    <rect x="42" y="30" width="4" height="4" rx="1"/>
    
    <rect x="18" y="42" width="4" height="4" rx="1"/>
    <rect x="30" y="42" width="4" height="4" rx="1"/>
    <rect x="42" y="42" width="4" height="4" rx="1"/>
  </g>

  <g filter="url(#dropShadow)">
    <path d="
      M 37 23
      C 37 16, 19 16, 19 25
      C 19 32, 37 32, 37 39
      C 37 48, 19 48, 19 41
    " 
    fill="none" 
    stroke="url(#logoGrad)" 
    stroke-width="4" 
    stroke-linecap="round"/>

    <rect x="41" y="20" width="4" height="24" fill="url(#logoGrad)" rx="2"/>
  </g>
</svg>
